[img]http://img171.imageshack.us/img171/1589/waterhorselegendofthede.jpg[/img]
 
http://www.imdb.com/title/tt0760329/

Source: The.Water.Horse.Legend.of.the.Deep.2007.720p.BluRay.x264-ESiR                                         

Subs: Dutch, English.

Sample and Screens included.

General
Complete name                    : The Water Horse-Legend of the Deep-MP4 AAC-BRRip 2007.mp4
Format                           : MPEG-4
Format profile                   : Base Media
Codec ID                         : isom
File size                        : 1.55 GiB
Duration                         : 1h 51mn
Overall bit rate                 : 1 984 Kbps
Encoded date                     : UTC 2011-10-22 13:18:55
Tagged date                      : UTC 2011-10-22 13:18:55
Writing application              : Yamb 2.1.0.0 

Video
ID                               : 1
Format                           : AVC
Format/Info                      : Advanced Video Codec
Format profile                   : Main@L3.0
Format settings, CABAC           : Yes
Format settings, ReFrames        : 1 frame
Codec ID                         : avc1
Codec ID/Info                    : Advanced Video Coding
Duration                         : 1h 51mn
Bit rate mode                    : Variable
Bit rate                         : 1 600 Kbps
Maximum bit rate                 : 6 470 Kbps
Width                            : 720 pixels
Height                           : 304 pixels
Display aspect ratio             : 2.35:1
Frame rate mode                  : Variable
Frame rate                       : 23.939 fps
Minimum frame rate               : 0.387 fps
Maximum frame rate               : 23.976 fps
Original frame rate              : 23.976 fps
Resolution                       : 8 bits
Colorimetry                      : 4:2:0
Scan type                        : Progressive
Bits/(Pixel*Frame)               : 0.305
Stream size                      : 1.25 GiB (81%)
Writing library                  : x264 core 65
Encoding settings                : cabac=1 / ref=1 / deblock=1:0:0 / analyse=0x1:0x111 / me=hex / subme=6 / psy_rd=1.0:0.0 / mixed_ref=0 / me_range=16 / chroma_me=1 / trellis=0 / 8x8dct=0 / cqm=0 / deadzone=21,11 / chroma_qp_offset=-2 / threads=3 / nr=0 / decimate=1 / mbaff=0 / bframes=0 / keyint=240 / keyint_min=24 / scenecut=40(pre) / rc=2pass / bitrate=1600 / ratetol=1.0 / qcomp=0.60 / qpmin=10 / qpmax=51 / qpstep=4 / cplxblur=20.0 / qblur=0.5 / ip_ratio=1.40 / aq=1:1.00
Encoded date                     : UTC 2011-10-23 00:45:50
Tagged date                      : UTC 2011-10-22 13:21:10
Color primaries                  : BT.601-6 525, BT.1358 525, BT.1700 NTSC, SMPTE 170M
Transfer characteristics         : BT.709-5, BT.1361
Matrix coefficients              : BT.601-6 525, BT.1358 525, BT.1700 NTSC, SMPTE 170M

Audio
ID                               : 2
Format                           : AAC
Format/Info                      : Advanced Audio Codec
Format version                   : Version 4
Format profile                   : LC
Format settings, SBR             : No
Codec ID                         : 40
Duration                         : 1h 51mn
Bit rate mode                    : Variable
Bit rate                         : 384 Kbps
Maximum bit rate                 : 537 Kbps
Channel(s)                       : 6 channels
Channel positions                : Front: L C R, Rear: L R, LFE
Sampling rate                    : 48.0 KHz
Stream size                      : 307 MiB (19%)
Encoded date                     : UTC 2011-10-22 13:20:41
Tagged date                      : UTC 2011-10-22 13:21:10

[img]http://img716.imageshack.us/img716/2772/thewaterhorselegendofth.jpg[/img]
